<?xml version="1.0" encoding="utf-8"?>
<!-- Generator: Adobe Illustrator 23.0.3, SVG Export Plug-In . SVG Version: 6.00 Build 0)  -->
<svg version="1.1" id="Layer_1" xmlns="http://www.w3.org/2000/svg" xmlns:xlink="http://www.w3.org/1999/xlink" x="0px" y="0px"
	 viewBox="0 0 16 16" style="enable-background:new 0 0 16 16;" xml:space="preserve">
<style type="text/css">
	.st0{fill:#F9EC21;}
	.st1{fill:#EA1F27;}
</style>
<path d="M5.3,3.6c-0.1-1.1,0.1-2,1-2.7c0.5-0.4,1.1-0.6,1.8-0.6c0.9,0,1.6,0.4,2.1,1c0.5,0.7,0.6,1.4,0.6,2.3c0.5,0,1,0,1.5,0
	c0.4,0,0.5,0.1,0.5,0.5c0.2,2.5,0.3,5,0.5,7.5c0.1,1,0.1,1.9,0.2,2.9c0,0.4,0,0.5-0.4,0.5c-3.3,0-6.6,0-10,0c-0.3,0-0.5-0.1-0.4-0.4
	C2.7,12.8,2.8,11,3,9.2c0.1-1.7,0.2-3.3,0.3-5c0-0.5,0.1-0.6,0.6-0.6C4.3,3.6,4.8,3.6,5.3,3.6z M10.2,3.6c0-0.2,0-0.4,0-0.6
	c0-1.1-0.9-2-2-2.1C7.1,0.8,6.1,1.5,5.9,2.6c-0.1,0.7,0,1.5,0,2.3c0,0,0.1,0,0.1,0c0.2,0,0.4,0.1,0.4,0.3c0,0.3-0.2,0.3-0.4,0.3
	c-0.3,0-0.7,0-1,0c-0.1,0-0.2-0.2-0.3-0.3C4.8,5.1,4.9,5,5,4.9c0.1,0,0.2,0,0.2,0c0-0.2,0-0.4,0-0.7c-0.4,0-0.7,0-1.1,0
	c-0.2,0-0.3,0.1-0.3,0.3c0,0.9-0.1,1.7-0.2,2.6c-0.1,1.3-0.2,2.6-0.3,4c0,0.5-0.1,1-0.1,1.6c0.2,0,0.3,0,0.4,0c1.8,0,3.6,0,5.4,0
	c0.1,0,0.2,0,0.3,0c0.1,0.1,0.2,0.2,0.3,0.3c0,0.1-0.2,0.2-0.3,0.3c-0.1,0-0.2,0-0.3,0c-1.8,0-3.7,0-5.5,0c-0.1,0-0.3,0-0.4,0
	c0,0.4,0,0.7,0,1.1c3.2,0,6.4,0,9.5,0c0-0.4,0-0.7-0.1-1.1c-0.6,0-1.2,0-1.8,0c-0.1,0-0.3-0.2-0.4-0.3c-0.1-0.2,0.1-0.3,0.4-0.3
	c0.2,0,0.4,0,0.6,0c0.4,0,0.7,0,1.1,0c-0.2-2.8-0.4-5.6-0.5-8.4c-0.5,0-0.9,0-1.4,0c0,0.2,0,0.4,0,0.6c0.1,0,0.1,0,0.1,0
	c0.2,0,0.4,0.1,0.4,0.3c0,0.3-0.2,0.3-0.4,0.3c-0.3,0-0.5,0-0.8,0c-0.2,0-0.5,0-0.5-0.3c0-0.3,0.2-0.3,0.5-0.3c0,0,0,0,0.1,0
	c0-0.2,0-0.4,0-0.6c-0.1,0-0.3,0-0.4,0c-0.9,0-1.9,0-2.8,0c-0.2,0-0.5,0-0.5-0.3c0-0.3,0.2-0.3,0.5-0.3C8,3.6,9.1,3.6,10.2,3.6z"/>
<path class="st0" d="M12.8,13.3c-0.6,0-1.2,0-1.8,0c-0.1,0-0.3-0.2-0.4-0.3c-0.1-0.2,0.1-0.3,0.4-0.3c0.2,0,0.4,0,0.6,0
	c0.4,0,0.7,0,1.1,0c-0.2-2.8-0.4-5.6-0.5-8.4h-1.4v0.6c0.1,0,0.1,0,0.1,0c0.2,0,0.4,0.1,0.4,0.3c0,0.3-0.2,0.3-0.4,0.3
	c-0.3,0-0.5,0-0.8,0c-0.2,0-0.5,0-0.5-0.3c0-0.3,0.2-0.3,0.5-0.3c0,0,0,0,0.1,0V4.2c-0.1,0-0.3,0-0.4,0c-0.9,0-1.9,0-2.8,0
	c-0.2,0-0.5,0-0.5-0.3c0-0.2,0.1-0.2,0.2-0.3c-0.3,0-0.5,0-0.8,0c0,0.4,0,0.8,0,1.3c0,0,0.1,0,0.1,0c0.2,0,0.4,0.1,0.4,0.3
	c0,0.3-0.2,0.3-0.4,0.3c-0.3,0-0.7,0-1,0c-0.1,0-0.2-0.2-0.3-0.3C4.8,5.1,4.9,5,5,4.9c0.1,0,0.2,0,0.2,0V4.2c-0.4,0-0.7,0-1.1,0
	c-0.2,0-0.3,0.1-0.3,0.3c0,0.9-0.1,1.7-0.2,2.6c-0.1,1.3-0.2,2.6-0.3,4c0,0.5-0.1,1-0.1,1.6h0.4c1.8,0,3.6,0,5.4,0
	c0.1,0,0.2,0,0.3,0c0.1,0.1,0.2,0.2,0.3,0.3c0,0.1-0.2,0.2-0.3,0.3c-0.1,0-0.2,0-0.3,0c-1.8,0-3.7,0-5.5,0H3.3v1.1h9.5
	C12.8,14,12.8,13.6,12.8,13.3z M8.3,11.8c-0.2,0.2-0.4,0.2-0.6,0c-0.6-0.6-1.3-1.2-1.9-1.8C5.5,9.6,5.4,9.1,5.4,8.5
	c0-0.7,0.3-1.2,0.8-1.5c0.6-0.3,1.1-0.3,1.7,0.1c0.1,0.1,0.3,0,0.4,0C8.8,6.8,9.3,6.7,9.8,7c0.6,0.3,0.9,0.8,0.9,1.4
	c0,0.5-0.1,1-0.5,1.4C9.6,10.6,9,11.2,8.3,11.8z"/>
<path d="M10.7,8.5c0,0.5-0.1,1-0.5,1.4c-0.6,0.7-1.2,1.3-1.9,1.9c-0.2,0.2-0.4,0.2-0.6,0c-0.6-0.6-1.3-1.2-1.9-1.8
	C5.5,9.6,5.4,9.1,5.4,8.5c0-0.7,0.3-1.2,0.8-1.5c0.6-0.3,1.1-0.3,1.7,0.1c0.1,0.1,0.3,0,0.4,0C8.8,6.8,9.3,6.7,9.8,7
	C10.4,7.4,10.7,7.8,10.7,8.5z M7.1,7.4C6.4,7.4,5.8,8,6,8.6c0.1,0.4,0.2,0.8,0.5,1c0.4,0.5,0.9,0.9,1.4,1.4c0.1,0.1,0.3,0.1,0.4,0
	c0.4-0.4,0.9-0.8,1.3-1.3c0.3-0.3,0.4-0.7,0.6-1.1c0.1-0.5-0.1-0.9-0.6-1.1C9,7.3,8.7,7.4,8.4,7.8C8.1,8.1,8,8.1,7.7,7.8
	C7.5,7.6,7.3,7.5,7.1,7.4z"/>
<path class="st1" d="M7.1,7.4c0.1,0.1,0.4,0.2,0.5,0.4c0.3,0.3,0.4,0.3,0.7,0C8.7,7.4,9,7.3,9.5,7.6c0.5,0.2,0.7,0.6,0.6,1.1
	C9.9,9.1,9.8,9.5,9.5,9.8c-0.4,0.5-0.8,0.9-1.3,1.3c-0.1,0.1-0.3,0.2-0.4,0c-0.5-0.5-1-0.9-1.4-1.4C6.2,9.4,6.1,9,6,8.6
	C5.8,8,6.4,7.4,7.1,7.4z"/>
</svg>
