<?xml version="1.0" encoding="utf-8"?>
<!-- Generator: Adobe Illustrator 23.0.3, SVG Export Plug-In . SVG Version: 6.00 Build 0)  -->
<svg version="1.1" id="Layer_1" xmlns="http://www.w3.org/2000/svg" xmlns:xlink="http://www.w3.org/1999/xlink" x="0px" y="0px"
	 viewBox="0 0 16 7" style="enable-background:new 0 0 16 7;" xml:space="preserve">
<style type="text/css">
	.st0{fill:#E8282B;}
	.st1{fill:#FFFFFF;}
</style>
<g>
	<path class="st0" d="M14.6,2.3c0,0.1,0,0.2,0,0.3c0,0.1,0,0.2,0,0.3c0,0.1,0,0.2,0,0.3c0,0.1,0,0.2,0,0.3c0,0.1,0,0.2,0,0.3
		c0,0.1,0,0.2,0,0.3c0,0.1,0,0.2,0,0.3c0,0.1,0,0.2,0,0.3c0,0.1,0,0.2,0,0.3c0,0.1,0,0.2,0,0.3c0,0.1,0,0.2,0,0.3c0,0,0,0,0,0
		c0,0.1,0,0.2,0,0.2c0,0-0.1,0-0.2,0c-4.3,0-8.6,0-12.8,0c-0.1,0-0.2,0-0.2,0c0,0,0,0,0,0c0-0.3,0-0.7,0-1c0-1.4,0-2.8,0-4.1
		C1.3,1,1.3,1,1.4,1c2,0,4,0,6,0c2.2,0,4.5,0,6.7,0c0.2,0,0.4,0,0.5,0c0,0.1,0,0.1,0,0.2c0,0.1,0,0.2,0,0.3c0,0.1,0,0.2,0,0.3
		C14.6,2,14.6,2.2,14.6,2.3z M9.9,4C9.9,4,9.9,4,9.9,4C9.8,3.6,9.8,3.2,9.7,2.8C9.7,2.4,9.6,1.9,9.6,1.5c0-0.1,0-0.1-0.1-0.1
		c-0.2,0-0.4,0-0.6,0c-0.2,0-0.2,0-0.2,0.2c0,0.2,0,0.3,0.1,0.5c0,0,0,0-0.1-0.1C8.5,1.6,8.1,1.4,7.7,1.4c-0.2,0-0.5,0-0.7,0
		c-0.1,0-0.1,0-0.1,0.1c0,1.2,0,2.4,0,3.6c0,0,0,0.1,0,0.1c-0.1-0.3-0.1-0.7-0.2-1C6.5,3.3,6.4,2.4,6.3,1.5c0-0.1,0-0.1-0.1-0.1
		c-0.3,0-0.6,0-0.9,0c-0.1,0-0.1,0-0.1,0.1C5.1,2,5,2.4,5,2.8c-0.1,0.7-0.2,1.3-0.3,2c0,0.2,0,0.3-0.1,0.5c0,0,0,0,0,0
		c0,0,0-0.1,0-0.1c0-0.4,0-0.8,0-1.3c0-0.8,0-1.6,0-2.4c0-0.1,0-0.1-0.1-0.1c-0.3,0-0.6,0-0.9,0c0,0-0.1,0-0.1,0.1
		c0,0.3-0.1,0.6-0.2,1C3.3,2.8,3.3,3.2,3.2,3.6c0,0,0-0.1,0-0.1C3.1,2.9,3,2.2,2.9,1.5c0-0.1,0-0.1-0.1-0.1c-0.3,0-0.6,0-0.9,0
		c-0.1,0-0.1,0-0.1,0.1c0,1.4,0,2.8,0,4.2c0,0.1,0,0.1,0.1,0.1c0.2,0,0.4,0,0.6,0c0.1,0,0.1,0,0.1-0.1c0-0.6,0-1.2,0-1.8
		c0,0,0-0.1,0-0.1c0,0.1,0.1,0.3,0.1,0.4c0.1,0.5,0.2,1,0.3,1.5c0,0,0,0.1,0.1,0.1c0.1,0,0.2,0,0.3,0c0,0,0.1,0,0.1-0.1
		c0.1-0.4,0.1-0.9,0.2-1.3c0-0.2,0.1-0.4,0.1-0.6c0,0,0,0,0,0c0,0,0,0.1,0,0.1c0,0.6,0,1.2,0,1.8c0,0,0,0.1,0.1,0.1c0.5,0,1,0,1.4,0
		c0,0,0.1,0,0.1-0.1c0-0.2,0.1-0.4,0.1-0.6c0,0,0-0.1,0.1-0.1c0.2,0,0.3,0,0.5,0C6,5.1,6,5.2,6,5.2c0,0.2,0,0.4,0.1,0.5
		c0,0.1,0,0.1,0.1,0.1c0.5,0,0.9,0,1.4,0c0.1,0,0.1,0,0.1-0.1c0-0.4,0-0.8,0-1.3c0-0.1,0.1-0.1,0.1-0.1c0.1,0,0.1,0,0.1,0.1
		C8,4.9,8.1,5.3,8.2,5.7c0,0.1,0,0.1,0.1,0.1c0.2,0,0.4,0,0.6,0C9,5.8,9,5.8,9,5.7c-0.2-0.5-0.3-1-0.5-1.5c0-0.1,0-0.1,0-0.1
		c0.1-0.1,0.2-0.3,0.3-0.4C8.9,3.5,9,3.3,9,3.2c0,0.2,0.1,0.3,0.1,0.5c0.1,0.7,0.2,1.4,0.3,2c0,0.1,0,0.1,0.1,0.1c0.3,0,0.5,0,0.8,0
		c0.1,0,0.1,0,0.1-0.1c0.1-0.4,0.1-0.8,0.2-1.1c0.1-0.7,0.2-1.4,0.3-2.1C10.9,2.3,11,2.1,11,2c0,0,0,0,0,0c0,0,0,0.1,0,0.1
		c0,1.2,0,2.4,0,3.7c0,0,0,0.1,0.1,0.1c0.5,0,0.9,0,1.4,0c0.1,0,0.1,0,0.1-0.1c0-0.2,0-0.4,0-0.7c0-0.1,0-0.1-0.1-0.1
		c-0.2,0-0.4,0-0.6,0c-0.1,0-0.1,0-0.1-0.1c0-0.3,0-0.6,0-0.9c0-0.1,0-0.1,0.1-0.1c0.2,0,0.4,0,0.6,0c0.1,0,0.1,0,0.1-0.1
		c0-0.2,0-0.4,0-0.7c0-0.1,0-0.1-0.1-0.1c-0.2,0-0.4,0-0.6,0c-0.1,0-0.1,0-0.1-0.1c0-0.3,0-0.6,0-0.8c0-0.1,0-0.1,0.1-0.1
		c0.2,0,0.4,0,0.6,0c0.1,0,0.1,0,0.1-0.1c0-0.2,0-0.4,0-0.6c0-0.1,0-0.1-0.1-0.1c-0.7,0-1.4,0-2.1,0c-0.1,0-0.1,0-0.1,0.1
		C10.1,2.3,10,3.2,9.9,4z M13.5,3.2c0-0.6,0-1.1,0-1.7c0-0.1,0-0.1-0.1-0.1c-0.2,0-0.4,0-0.6,0c-0.1,0-0.1,0-0.1,0.1
		c0,0.6,0,1.3,0,1.9c0,0.8,0,1.5,0,2.3c0,0.1,0,0.1,0.1,0.1c0.5,0,0.9,0,1.4,0c0,0,0.1,0,0.1-0.1c0-0.2,0-0.4,0-0.7
		c0-0.1,0-0.1-0.1-0.1c-0.2,0-0.3,0-0.5,0c-0.1,0-0.1,0-0.1-0.1C13.5,4.4,13.5,3.8,13.5,3.2z"/>
	<path class="st1" d="M9.9,4.1c0.1-0.9,0.2-1.7,0.3-2.5c0-0.1,0-0.1,0.1-0.1c0.7,0,1.4,0,2.1,0c0.1,0,0.1,0,0.1,0.1
		c0,0.2,0,0.4,0,0.6c0,0.1,0,0.1-0.1,0.1c-0.2,0-0.4,0-0.6,0c-0.1,0-0.1,0-0.1,0.1c0,0.3,0,0.6,0,0.8c0,0.1,0,0.1,0.1,0.1
		c0.2,0,0.4,0,0.6,0c0.1,0,0.1,0,0.1,0.1c0,0.2,0,0.4,0,0.7c0,0.1,0,0.1-0.1,0.1c-0.2,0-0.4,0-0.6,0c-0.1,0-0.1,0-0.1,0.1
		c0,0.3,0,0.6,0,0.9c0,0.1,0,0.1,0.1,0.1c0.2,0,0.4,0,0.6,0c0.1,0,0.1,0,0.1,0.1c0,0.2,0,0.4,0,0.7c0,0.1,0,0.1-0.1,0.1
		c-0.5,0-0.9,0-1.4,0c-0.1,0-0.1,0-0.1-0.1c0-1.2,0-2.4,0-3.7c0,0,0-0.1,0-0.1c0,0,0,0,0,0c0,0.2-0.1,0.4-0.1,0.6
		c-0.1,0.7-0.2,1.4-0.3,2.1c-0.1,0.4-0.1,0.8-0.2,1.1c0,0.1,0,0.1-0.1,0.1c-0.3,0-0.5,0-0.8,0c-0.1,0-0.1,0-0.1-0.1
		c-0.1-0.7-0.2-1.4-0.3-2C9.1,3.6,9,3.4,9,3.2c0,0.2,0,0.3-0.1,0.4C8.8,3.8,8.7,4,8.6,4.1c-0.1,0-0.1,0.1,0,0.1
		c0.2,0.5,0.3,1,0.5,1.5c0,0.1,0,0.1-0.1,0.1c-0.2,0-0.4,0-0.6,0c-0.1,0-0.1,0-0.1-0.1C8.1,5.3,8,4.9,7.9,4.5c0,0,0-0.1-0.1-0.1
		c-0.1,0-0.1,0-0.1,0.1c0,0.4,0,0.8,0,1.3c0,0.1,0,0.1-0.1,0.1c-0.5,0-0.9,0-1.4,0c-0.1,0-0.1,0-0.1-0.1c0-0.2,0-0.4-0.1-0.5
		c0,0,0-0.1-0.1-0.1c-0.2,0-0.3,0-0.5,0c0,0-0.1,0-0.1,0.1c0,0.2-0.1,0.4-0.1,0.6c0,0,0,0.1-0.1,0.1c-0.5,0-1,0-1.4,0
		c-0.1,0-0.1,0-0.1-0.1c0-0.6,0-1.2,0-1.8c0,0,0-0.1,0-0.1c0,0,0,0,0,0c0,0.2-0.1,0.4-0.1,0.6C3.6,4.9,3.5,5.3,3.4,5.8
		c0,0,0,0.1-0.1,0.1c-0.1,0-0.2,0-0.3,0C3,5.8,3,5.8,3,5.8c-0.1-0.5-0.2-1-0.3-1.5c0-0.1,0-0.3-0.1-0.4c0,0,0,0.1,0,0.1
		c0,0.6,0,1.2,0,1.8c0,0.1,0,0.1-0.1,0.1c-0.2,0-0.4,0-0.6,0c-0.1,0-0.1,0-0.1-0.1c0-1.4,0-2.8,0-4.2c0-0.1,0-0.1,0.1-0.1
		c0.3,0,0.6,0,0.9,0c0,0,0.1,0,0.1,0.1C3,2.2,3.1,2.9,3.2,3.6c0,0,0,0.1,0,0.1c0.1-0.4,0.1-0.8,0.2-1.2c0.1-0.3,0.1-0.6,0.2-1
		c0-0.1,0-0.1,0.1-0.1c0.3,0,0.6,0,0.9,0c0.1,0,0.1,0,0.1,0.1c0,0.8,0,1.6,0,2.4c0,0.4,0,0.8,0,1.3c0,0,0,0.1,0,0.1c0,0,0,0,0,0
		c0-0.2,0-0.3,0.1-0.5c0.1-0.7,0.2-1.3,0.3-2C5,2.4,5.1,2,5.2,1.6c0-0.1,0-0.1,0.1-0.1c0.3,0,0.6,0,0.9,0c0,0,0.1,0,0.1,0.1
		c0.1,0.9,0.3,1.8,0.4,2.7c0.1,0.3,0.1,0.7,0.2,1c0,0,0-0.1,0-0.1c0-1.2,0-2.4,0-3.6c0-0.1,0-0.1,0.1-0.1c0.2,0,0.5,0,0.7,0
		c0.5,0,0.8,0.2,1.1,0.6c0,0,0,0.1,0.1,0.1c0-0.2,0-0.3-0.1-0.5c0-0.2,0-0.2,0.2-0.2c0.2,0,0.4,0,0.6,0c0,0,0.1,0,0.1,0.1
		C9.6,2,9.7,2.4,9.7,2.8C9.8,3.2,9.8,3.6,9.9,4.1C9.9,4,9.9,4,9.9,4.1z M7.7,2.9c0,0.2,0,0.4,0,0.6c0,0.1,0,0.1,0.1,0.1
		c0.2,0,0.3-0.1,0.4-0.3c0.1-0.3,0.1-0.5,0-0.8C8,2.4,7.9,2.3,7.7,2.2c-0.1,0-0.1,0-0.1,0.1C7.7,2.5,7.7,2.7,7.7,2.9z M5.7,2.7
		C5.7,2.7,5.7,2.7,5.7,2.7C5.7,2.7,5.7,2.7,5.7,2.7C5.7,3,5.7,3.2,5.6,3.5c0,0.3-0.1,0.6-0.1,0.9c0,0,0,0.1,0.1,0.1
		c0.1,0,0.2,0,0.3,0c0,0,0.1,0,0-0.1c0-0.2,0-0.3-0.1-0.5C5.8,3.5,5.8,3.1,5.7,2.7z"/>
	<path class="st1" d="M13.5,3.2c0,0.6,0,1.1,0,1.7c0,0.1,0,0.1,0.1,0.1c0.2,0,0.3,0,0.5,0c0.1,0,0.1,0,0.1,0.1c0,0.2,0,0.4,0,0.7
		c0,0,0,0.1-0.1,0.1c-0.5,0-0.9,0-1.4,0c-0.1,0-0.1,0-0.1-0.1c0-0.8,0-1.5,0-2.3c0-0.6,0-1.3,0-1.9c0-0.1,0-0.1,0.1-0.1
		c0.2,0,0.4,0,0.6,0c0.1,0,0.1,0,0.1,0.1C13.5,2.1,13.5,2.7,13.5,3.2z"/>
	<path class="st0" d="M7.7,2.9c0-0.2,0-0.4,0-0.6c0-0.1,0-0.1,0.1-0.1c0.2,0,0.3,0.1,0.4,0.3c0.1,0.3,0.1,0.5,0,0.8
		C8,3.5,7.9,3.6,7.7,3.6c0,0-0.1,0-0.1-0.1C7.7,3.3,7.7,3.1,7.7,2.9z"/>
	<path class="st0" d="M5.7,2.7c0.1,0.4,0.1,0.8,0.2,1.3c0,0.2,0,0.3,0.1,0.5c0,0,0,0.1,0,0.1c-0.1,0-0.2,0-0.3,0
		c-0.1,0-0.1,0-0.1-0.1c0-0.3,0.1-0.6,0.1-0.9C5.7,3.2,5.7,2.9,5.7,2.7C5.7,2.7,5.7,2.7,5.7,2.7C5.7,2.7,5.7,2.7,5.7,2.7z"/>
</g>
</svg>
