<?xml version="1.0" encoding="utf-8"?>
<!-- Generator: Adobe Illustrator 23.0.3, SVG Export Plug-In . SVG Version: 6.00 Build 0)  -->
<svg version="1.1" id="Layer_1" xmlns="http://www.w3.org/2000/svg" xmlns:xlink="http://www.w3.org/1999/xlink" x="0px" y="0px"
	 viewBox="0 0 16 16" style="enable-background:new 0 0 16 16;" xml:space="preserve">
<style type="text/css">
	.st0{fill:#1B1207;}
	.st1{fill:#EA1F27;}
	.st2{fill:#F9EC21;}
	.st3{fill:#E8282B;}
	.st4{fill:#FFFFFF;}
</style>
<path class="st0" d="M15,9.7c0,0.1,0,0.2-0.1,0.3c-0.1,0.2-0.2,0.3-0.4,0.4c0,0,0,0.1,0,0.1c0,0.9,0,1.9,0,2.8c0,0.2,0,0.4,0,0.6
	c0,0,0,0,0,0c-0.8,0-1.6,0-2.5,0c-1,0-2.1,0-3.1,0c-0.1,0-0.1,0-0.1-0.1c0-0.6,0-1.2,0-1.7c0-0.1,0-0.2,0-0.2c0,0,0,0,0,0
	c-0.2,0.4-0.4,0.8-0.5,1.2c-0.1,0.2-0.2,0.5-0.3,0.7c0,0.1-0.1,0.2-0.1,0.2c0-0.1-0.1-0.1-0.1-0.2c-0.1-0.2-0.2-0.5-0.3-0.7
	c-0.1-0.2-0.2-0.5-0.3-0.7c-0.1-0.2-0.2-0.4-0.2-0.5c0,0,0,0.1,0,0.1c0,0.6,0,1.2,0,1.7c0,0.1,0,0.2,0,0.2c-0.2,0-0.5,0-0.7,0
	c-0.8,0-1.6,0-2.4,0c-0.8,0-1.6,0-2.4,0c-0.2,0-0.2,0-0.2-0.2c0,0,0,0,0,0c0-0.1,0-0.2,0-0.3c0-0.1,0-0.2,0-0.3c0-0.1,0-0.2,0-0.3
	c0-0.1,0-0.1,0-0.2c0,0-0.1-0.1-0.1-0.1c0,0,0,0,0,0c-0.2-0.3-0.3-0.7-0.3-1.1c0-0.2,0.1-0.4,0.2-0.6c0.1-0.1,0.2-0.3,0.3-0.4
	c0-0.1,0-0.2,0-0.2c0-0.1,0-0.2,0-0.3c0-0.1,0-0.2,0-0.3c0-0.1,0-0.2,0-0.3c0-0.1,0-0.2,0-0.3c0-0.1,0-0.2,0-0.3c0-0.1,0-0.2,0-0.3
	c0,0,0-0.1,0-0.1c0-0.2,0-0.2,0.2-0.2c0,0,0.1,0,0.1,0c1.1,0,2.2,0,3.3,0c2.4,0,4.8,0,7.3,0c0.8,0,1.6,0,2.4,0c0.1,0,0.1,0,0.1,0.1
	c0,0.1,0,0.2,0,0.2c0,0,0,0.1,0,0.1c0,0.1,0.1,0.2,0.1,0.3c0,0.1-0.1,0.1-0.2,0.2c0,0.1,0,0.1,0,0.2c0,0,0,0.1,0,0.1
	c0,0.1,0,0.2,0.1,0.2c0.1,0,0.2,0.2,0.2,0.3C14.9,9.5,15,9.6,15,9.7z M14.5,10.5c0,0-0.1,0.1-0.1,0.1c-0.4,0.2-0.7,0.4-1.1,0.5
	c-0.3,0.1-0.5-0.1-0.6-0.4c0-0.1,0-0.2,0-0.2c0-0.2,0.1-0.3,0.3-0.4c0.1,0,0.2,0,0.3-0.1c0.2-0.1,0.4-0.1,0.5-0.2
	c0,0,0.1-0.1,0.1-0.1c0,0-0.1,0-0.1,0c-0.2,0-0.4,0-0.6,0c-0.3,0-0.5-0.1-0.6-0.4c-0.1,0.1-0.3,0.1-0.4,0c-0.1-0.1-0.2-0.1-0.2-0.2
	c0,0-0.1,0-0.1,0c-0.2,0.1-0.3,0.2-0.5,0.4c-0.1,0.1-0.2,0.3-0.2,0.5c0,0.1,0.1,0.2,0.2,0.2c0.1,0,0.2,0,0.3,0
	c0.2-0.1,0.4-0.2,0.6-0.4c0.1,0,0.1-0.1,0.2,0c0.1,0.1,0.2,0.2,0.2,0.4c0,0.1,0,0.1-0.1,0.2c-0.2,0.3-0.5,0.5-0.9,0.7
	c-0.2,0.1-0.4,0.1-0.6,0.1c-0.4,0-0.7,0-1-0.3c-0.1-0.1-0.1-0.2-0.2-0.2c0,0.1,0,0.2,0,0.3c0,0.3-0.3,0.5-0.5,0.5
	c-0.1,0-0.2-0.1-0.2-0.2c0-0.3-0.1-0.6-0.1-0.9c0,0.2-0.1,0.4-0.1,0.7c0,0.1-0.1,0.2-0.2,0.3c-0.1,0-0.2,0.1-0.3,0.1
	c-0.3,0-0.3-0.1-0.3-0.3c0-0.1,0-0.3,0-0.4c-0.1,0.1-0.1,0.3-0.2,0.4c-0.2,0.3-0.4,0.4-0.8,0.3C7.1,11.2,7,11.1,7,11
	c0-0.2,0-0.3-0.1-0.5c0,0.1-0.1,0.2-0.1,0.4c-0.1,0.2-0.1,0.4-0.2,0.6c-0.1,0.3-0.4,0.4-0.6,0.2c0,0-0.1,0-0.1,0
	c-0.1,0.2-0.2,0.3-0.3,0.4c-0.3,0.4-0.8,0.6-1.3,0.5c-0.2,0-0.4-0.1-0.6-0.2c0,0.1-0.1,0.1-0.1,0.2c-0.3,0.1-0.6,0.2-0.9,0.3
	c-0.3,0.1-0.7,0.1-1.1,0c-0.2,0-0.3-0.1-0.4-0.2c0,0,0,0.1,0,0.1c0,0.4,0,0.7,0,1.1c0,0.1,0,0.1,0.1,0.1c1.8,0,3.6,0,5.3,0
	c0.1,0,0.1,0,0.1-0.1c0-0.7,0-1.3,0-2c0,0,0,0,0-0.1c0,0,0,0,0,0c0,0,0,0,0,0c0,0,0,0,0,0.1c0.3,0.7,0.6,1.3,0.9,2c0,0,0,0.1,0,0.1
	c0,0,0-0.1,0-0.1c0.2-0.5,0.4-1,0.7-1.5c0.1-0.2,0.1-0.3,0.2-0.5c0,0,0-0.1,0.1-0.1c0,0,0,0,0,0.1c0,0,0,0,0,0.1c0,0.7,0,1.3,0,2
	c0,0.1,0,0.1,0.1,0.1c1.8,0,3.6,0,5.4,0c0.1,0,0.1,0,0.1-0.1C14.5,12.7,14.5,11.7,14.5,10.5C14.5,10.6,14.5,10.6,14.5,10.5z
	 M3.7,9.7c0-0.3,0-0.5-0.2-0.8C3.4,8.8,3.4,8.8,3.3,8.8c-0.2,0-0.3,0.1-0.5,0.1c-0.8,0.4-1.3,1-1.7,1.7c-0.2,0.3-0.3,0.7-0.2,1.1
	c0.1,0.4,0.3,0.7,0.6,0.9c0.3,0.1,0.6,0.2,0.9,0.1c0.4,0,0.8-0.2,1.2-0.4c0.1,0,0.1-0.1,0.1-0.2c0,0,0-0.1,0-0.1c0,0,0.1,0,0.1,0
	c0.1,0.1,0.3,0.2,0.5,0.2c0.4,0.1,0.7,0.1,1-0.1c0.3-0.2,0.5-0.5,0.6-0.8c0.1-0.1,0.1-0.1,0.2,0c0.2,0.2,0.4,0.1,0.5-0.1
	c0,0,0-0.1,0-0.1c0.1-0.3,0.2-0.6,0.2-0.9c0-0.1,0.1-0.2,0.1-0.3c0,0,0-0.1,0.1-0.1c0,0,0,0,0,0.1c0,0,0,0,0,0c0,0.3,0,0.5,0,0.8
	c0,0.1,0.1,0.2,0.2,0.1c0.3,0,0.5-0.1,0.6-0.3c0.1-0.2,0.2-0.3,0.3-0.5c0,0,0-0.1,0.1-0.1c0,0,0,0,0,0.1c0,0.2,0,0.5,0.1,0.7
	c0,0.1,0,0.1,0.1,0.1c0.2,0,0.3,0,0.5-0.1c0,0,0.1-0.1,0.1-0.1C9,10.7,9,10.4,9,10.2c0-0.1,0-0.2,0.1-0.3c0,0,0-0.1,0.1-0.1
	c0,0,0,0,0,0.1c0,0,0,0.1,0,0.1c0,0.4,0.1,0.8,0.1,1.2c0,0.1,0.1,0.2,0.2,0.2c0.2,0,0.4-0.2,0.4-0.4c0-0.2,0-0.4,0-0.5
	c0,0,0-0.1,0-0.1c0,0,0.1,0,0.1,0.1c0,0.1,0.1,0.1,0.1,0.2c0.2,0.4,0.5,0.6,0.9,0.5c0.6,0,1.1-0.3,1.5-0.8c0-0.1,0.1-0.1,0-0.2
	c0-0.1-0.1-0.2-0.2-0.2c0,0-0.1,0-0.1,0c-0.1,0.1-0.3,0.2-0.5,0.3c-0.1,0.1-0.3,0.1-0.5,0.1c-0.2,0-0.3-0.1-0.3-0.3
	c0-0.2,0-0.4,0.2-0.5c0.2-0.2,0.4-0.4,0.6-0.5c0.1,0,0.1,0,0.1,0c0.1,0.1,0.2,0.2,0.3,0.2c0.1,0.1,0.3,0.1,0.4-0.1c0,0,0-0.1,0.1,0
	c0,0,0,0,0,0.1c0,0.2,0.1,0.3,0.2,0.3c0.2,0.1,0.4,0.1,0.6,0.1c0.1,0,0.2,0,0.3,0c0.1,0,0.2,0,0.2,0.1c0,0.1,0,0.1-0.1,0.2
	c0,0-0.1,0.1-0.2,0.1c-0.3,0.1-0.5,0.2-0.8,0.2c-0.1,0-0.2,0.1-0.2,0.2c0,0.1,0,0.2,0,0.3c0,0.2,0.1,0.3,0.3,0.3c0.1,0,0.2,0,0.2,0
	c0.2-0.1,0.4-0.1,0.5-0.2c0.3-0.2,0.6-0.3,0.9-0.6c0.1-0.1,0.1-0.2,0.2-0.4c0-0.4-0.3-0.7-0.7-0.7c-0.1,0-0.1,0-0.2,0
	c0,0-0.1,0-0.1,0c-0.1,0-0.2-0.1-0.1-0.2c0,0,0.1-0.1,0.1-0.1c0.1-0.1,0.2-0.1,0.3-0.2c0.1-0.1,0.3-0.1,0.4-0.2c0,0,0.1-0.1,0-0.1
	c-0.1-0.2-0.1-0.3-0.3-0.4c0,0-0.1,0-0.1,0C14,7.9,13.9,8,13.7,8.1c-0.4,0.2-0.7,0.4-0.8,0.7c0,0,0,0.1-0.1,0.1
	c-0.1,0,0-0.1-0.1-0.1c0-0.2-0.1-0.4-0.2-0.6C12.4,8,12.3,8,12.1,8c-0.3,0.1-0.6,0.2-0.8,0.4c-0.5,0.3-0.8,0.7-1.1,1.2
	c0,0,0,0.1-0.1,0.1c0,0,0-0.1,0-0.1c0-0.2,0-0.4,0.1-0.6c0-0.3,0.1-0.5,0.1-0.8c0-0.1,0-0.2-0.1-0.2C10,8,10,8,10,8
	c-0.2,0-0.4,0.1-0.6,0.2c-0.1,0-0.1,0.1-0.1,0.2c0,0.1,0,0.3-0.1,0.4c0,0,0,0.1,0,0.1c0,0,0,0,0-0.1c0,0,0-0.1,0-0.1
	c0-0.1-0.1-0.2-0.2-0.3C8.6,8.4,8.3,8.4,8.1,8.6C8,8.7,8,8.9,7.9,9C7.8,9.2,7.7,9.4,7.6,9.6c0,0,0,0.1-0.1,0.1c0,0,0-0.1,0-0.1
	c0,0,0-0.1,0-0.1c0-0.3-0.1-0.5-0.1-0.8c0-0.1-0.1-0.2-0.2-0.2c-0.1,0-0.1,0-0.2,0c-0.1,0-0.2,0-0.3,0.2c0,0.1-0.1,0.2-0.1,0.3
	c-0.1,0.3-0.2,0.6-0.3,1c0,0,0,0.1-0.1,0.1c0,0-0.1,0-0.1-0.1C6,9.7,5.9,9.6,5.8,9.5C5.6,9.3,5.4,9.2,5.1,9.3
	c-0.9,0.3-1.4,0.9-1.6,1.8c-0.1,0.4,0,0.3-0.3,0.4c-0.3,0.1-0.5,0.2-0.8,0.2c-0.3,0-0.4-0.1-0.5-0.4c0-0.1,0-0.3,0-0.4
	c0.2-0.4,0.4-0.7,0.7-0.9c0.1-0.1,0.1-0.1,0.2,0c0.1,0.1,0.2,0.2,0.3,0.3c0.2,0.1,0.4,0,0.4-0.2C3.7,10,3.7,9.8,3.7,9.7z M6.1,9.8
	c0.1-0.2,0.1-0.3,0.2-0.4c0.1-0.2,0.2-0.5,0.3-0.7c0.1-0.1,0.2-0.2,0.3-0.2c0.1,0,0.2,0,0.3,0c0.1,0,0.2,0.1,0.2,0.2
	c0,0.1,0.1,0.2,0.1,0.3c0,0.2,0.1,0.4,0.1,0.6c0,0,0-0.1,0-0.1C7.8,9.1,7.8,8.9,8,8.6c0.3-0.4,0.9-0.4,1.1-0.1c0,0,0,0,0,0
	c0,0,0,0,0-0.1c0-0.2,0.1-0.3,0.2-0.3C9.5,8.1,9.6,8,9.7,8c0.1,0,0.3-0.1,0.4-0.1c0.1,0,0.2,0.1,0.2,0.2c0,0.3-0.1,0.5-0.1,0.8
	c0,0.2,0,0.3,0,0.5c0,0,0-0.1,0.1-0.1c0.2-0.3,0.5-0.6,0.8-0.8c0.3-0.3,0.7-0.5,1.2-0.6c0.2,0,0.3,0,0.4,0.1
	c0.1,0.1,0.1,0.3,0.2,0.4c0,0.1,0,0.1,0.1,0.2c0.1-0.2,0.2-0.3,0.4-0.4c0.3-0.2,0.7-0.4,1-0.5c0.1,0,0.2,0,0.3,0.1c0,0,0,0,0,0
	c0-0.1,0-0.1-0.1-0.1c-4.3,0-8.7,0-13,0c-0.1,0-0.1,0-0.1,0.1c0,0.7,0,1.5,0,2.2c0,0,0,0,0,0.1c0,0,0,0,0,0c0.2-0.3,0.5-0.6,0.8-0.8
	c0.3-0.2,0.6-0.5,1-0.6c0.3-0.1,0.5,0,0.6,0.3c0.2,0.4,0.2,0.8,0,1.2c0,0.2-0.2,0.2-0.3,0.2c-0.2,0-0.4-0.1-0.6-0.3c0,0-0.1,0-0.1,0
	c-0.1,0.1-0.3,0.2-0.4,0.4C2.2,10.8,2.1,11,2,11.2c-0.1,0.2,0.1,0.5,0.3,0.5c0.1,0,0.1,0,0.2,0c0.3,0,0.6-0.1,0.9-0.3c0,0,0,0,0-0.1
	c0-0.1,0-0.2,0.1-0.3c0.2-0.9,0.7-1.5,1.6-1.8c0.2-0.1,0.5-0.1,0.7,0.1C5.9,9.5,6,9.6,6.1,9.8z M14.5,8.8c0-0.1,0-0.1,0-0.2
	c0,0,0,0,0,0c-0.2,0.1-0.4,0.2-0.5,0.3c0,0-0.1,0.1,0,0.1c0,0,0.1,0,0.1,0c0.1,0,0.2,0,0.3,0c0.1,0,0.1,0,0.2,0
	C14.5,9,14.5,8.9,14.5,8.8z"/>
<path class="st1" d="M14.5,10.5C14.5,10.6,14.5,10.6,14.5,10.5c0,1.2,0,2.2,0,3.3c0,0.1,0,0.1-0.1,0.1c-1.8,0-3.6,0-5.4,0
	c-0.1,0-0.1,0-0.1-0.1c0-0.7,0-1.3,0-2c0,0,0,0,0-0.1c0,0,0-0.1,0-0.1c0,0-0.1,0-0.1,0.1c-0.1,0.2-0.1,0.3-0.2,0.5
	c-0.2,0.5-0.4,1-0.7,1.5c0,0,0,0.1,0,0.1c0,0,0-0.1,0-0.1c-0.3-0.7-0.6-1.3-0.9-2c0,0,0,0,0-0.1c0,0,0,0,0,0c0,0,0,0,0,0
	c0,0,0,0,0,0.1c0,0.7,0,1.3,0,2c0,0.1,0,0.1-0.1,0.1c-1.8,0-3.6,0-5.3,0c-0.1,0-0.1,0-0.1-0.1c0-0.4,0-0.7,0-1.1c0,0,0-0.1,0-0.1
	c0.1,0.1,0.3,0.2,0.4,0.2c0.4,0.1,0.7,0,1.1,0c0.3-0.1,0.6-0.2,0.9-0.3c0.1,0,0.1-0.1,0.1-0.2c0.2,0.1,0.4,0.2,0.6,0.2
	c0.5,0.1,0.9-0.1,1.3-0.5C5.8,12,5.9,11.8,6,11.7c0,0,0-0.1,0.1,0c0.2,0.2,0.5,0.1,0.6-0.2c0.1-0.2,0.1-0.4,0.2-0.6
	c0-0.1,0.1-0.2,0.1-0.4C7,10.7,7,10.9,7,11c0,0.1,0.1,0.2,0.2,0.2c0.3,0,0.6-0.1,0.8-0.3c0.1-0.1,0.1-0.3,0.2-0.4c0,0.2,0,0.3,0,0.4
	c0,0.3,0.1,0.3,0.3,0.3c0.1,0,0.2,0,0.3-0.1C8.9,11.1,9,11,9,10.9c0-0.2,0.1-0.4,0.1-0.7c0,0.3,0.1,0.6,0.1,0.9
	c0,0.1,0.1,0.2,0.2,0.2c0.3,0,0.6-0.2,0.5-0.5c0-0.1,0-0.2,0-0.3c0.1,0.1,0.1,0.2,0.2,0.2c0.3,0.3,0.6,0.4,1,0.3
	c0.2,0,0.4-0.1,0.6-0.1c0.4-0.1,0.6-0.4,0.9-0.7c0,0,0.1-0.1,0.1-0.2c0-0.2-0.1-0.3-0.2-0.4c-0.1,0-0.1,0-0.2,0
	c-0.2,0.1-0.4,0.3-0.6,0.4c-0.1,0-0.2,0.1-0.3,0c-0.1,0-0.2-0.1-0.2-0.2c0-0.2,0.1-0.3,0.2-0.5c0.1-0.2,0.3-0.3,0.5-0.4
	c0,0,0.1,0,0.1,0c0.1,0.1,0.1,0.2,0.2,0.2c0.1,0.1,0.3,0.1,0.4,0c0.1,0.3,0.3,0.4,0.6,0.4c0.2,0,0.4,0,0.6,0c0,0,0.1,0,0.1,0
	c0,0.1,0,0.1-0.1,0.1c-0.2,0.1-0.3,0.2-0.5,0.2c-0.1,0-0.2,0.1-0.3,0.1c-0.2,0.1-0.3,0.1-0.3,0.4c0,0.1,0,0.2,0,0.2
	c0,0.3,0.3,0.5,0.6,0.4c0.4-0.1,0.8-0.3,1.1-0.5C14.4,10.6,14.4,10.6,14.5,10.5z"/>
<path class="st2" d="M3.7,9.7c0,0.2,0,0.3-0.1,0.5c-0.1,0.2-0.2,0.3-0.4,0.2c-0.2,0-0.3-0.1-0.3-0.3c-0.1-0.1-0.1-0.1-0.2,0
	C2.4,10.4,2.1,10.7,2,11c-0.1,0.1-0.1,0.3,0,0.4c0.1,0.2,0.2,0.4,0.5,0.4c0.3,0,0.6-0.1,0.8-0.2c0.4-0.2,0.3-0.1,0.3-0.4
	c0.2-0.9,0.7-1.5,1.6-1.8c0.3-0.1,0.5,0,0.7,0.2C5.9,9.6,6,9.7,6.1,9.9c0,0,0,0.1,0.1,0.1c0,0,0,0,0.1-0.1c0.1-0.3,0.2-0.6,0.3-1
	c0-0.1,0.1-0.2,0.1-0.3C6.7,8.5,6.9,8.4,7,8.4c0.1,0,0.1,0,0.2,0c0.1,0,0.2,0.1,0.2,0.2c0.1,0.3,0.1,0.5,0.1,0.8c0,0,0,0.1,0,0.1
	c0,0,0,0.1,0,0.1c0,0,0.1,0,0.1-0.1C7.7,9.4,7.8,9.2,7.9,9C8,8.9,8,8.7,8.1,8.6c0.2-0.3,0.5-0.3,0.8-0.2c0.1,0,0.2,0.1,0.2,0.3
	c0,0,0,0.1,0,0.1c0,0,0,0.1,0,0.1c0,0,0,0,0-0.1c0-0.1,0-0.3,0.1-0.4c0-0.1,0.1-0.2,0.1-0.2C9.6,8.1,9.8,8.1,10,8c0,0,0.1,0,0.1,0
	c0.1,0,0.2,0,0.1,0.2c0,0.3-0.1,0.5-0.1,0.8c0,0.2,0,0.4-0.1,0.6c0,0,0,0.1,0,0.1c0,0,0.1,0,0.1-0.1c0.3-0.5,0.7-0.9,1.1-1.2
	c0.3-0.2,0.5-0.3,0.8-0.4c0.2,0,0.3,0,0.4,0.2c0.1,0.2,0.1,0.4,0.2,0.6c0,0,0,0.1,0.1,0.1c0.1,0,0.1-0.1,0.1-0.1
	c0.2-0.3,0.5-0.6,0.8-0.7C13.9,8,14,7.9,14.2,7.9c0,0,0.1,0,0.1,0c0.1,0.1,0.2,0.3,0.3,0.4c0,0.1,0,0.1,0,0.1
	c-0.1,0.1-0.2,0.1-0.4,0.2c-0.1,0-0.2,0.1-0.3,0.2c0,0-0.1,0.1-0.1,0.1c-0.1,0.1,0,0.2,0.1,0.2c0,0,0.1,0,0.1,0c0.1,0,0.1,0,0.2,0
	c0.4,0,0.7,0.3,0.7,0.7c0,0.1-0.1,0.2-0.2,0.4c-0.2,0.3-0.5,0.5-0.9,0.6c-0.2,0.1-0.4,0.2-0.5,0.2c-0.1,0-0.2,0-0.2,0
	c-0.2,0-0.3-0.1-0.3-0.3c0-0.1,0-0.2,0-0.3c0-0.1,0.1-0.2,0.2-0.2c0.3-0.1,0.5-0.1,0.8-0.2c0.1,0,0.1-0.1,0.2-0.1
	c0.1-0.1,0.1-0.1,0.1-0.2c0-0.1-0.1-0.1-0.2-0.1c-0.1,0-0.2,0-0.3,0c-0.2,0-0.4,0-0.6-0.1c-0.2-0.1-0.2-0.2-0.2-0.3c0,0,0-0.1,0-0.1
	c0,0-0.1,0-0.1,0c-0.1,0.1-0.2,0.1-0.4,0.1C12.1,9.2,12,9.1,11.9,9c0,0-0.1-0.1-0.1,0c-0.2,0.1-0.4,0.3-0.6,0.5
	C11.1,9.6,11,9.8,11,10c0,0.2,0.1,0.2,0.3,0.3c0.2,0,0.3,0,0.5-0.1c0.2-0.1,0.3-0.2,0.5-0.3c0.1,0,0.1,0,0.1,0
	c0.1,0.1,0.1,0.1,0.2,0.2c0,0.1,0,0.1,0,0.2C12.1,10.7,11.6,11,11,11c-0.4,0-0.7-0.2-0.9-0.5c0-0.1-0.1-0.1-0.1-0.2
	c0,0,0-0.1-0.1-0.1c0,0,0,0,0,0.1c0,0.2,0,0.4,0,0.5c0,0.2-0.2,0.4-0.4,0.4c-0.1,0-0.2,0-0.2-0.2c0-0.4-0.1-0.8-0.1-1.2
	c0,0,0-0.1,0-0.1c0,0,0-0.1,0-0.1c0,0-0.1,0-0.1,0.1c0,0.1,0,0.2-0.1,0.3c0,0.2-0.1,0.5-0.1,0.7c0,0,0,0.1-0.1,0.1
	c-0.1,0.1-0.3,0.1-0.5,0.1c-0.1,0-0.1,0-0.1-0.1c0-0.2,0-0.5-0.1-0.7c0,0,0-0.1,0-0.1c0,0-0.1,0-0.1,0.1c-0.1,0.2-0.2,0.3-0.3,0.5
	c-0.1,0.2-0.4,0.3-0.6,0.3c-0.1,0-0.2,0-0.2-0.1c0-0.3,0-0.5,0-0.8c0,0,0,0,0,0c0,0,0-0.1,0-0.1c0,0-0.1,0-0.1,0.1
	c0,0.1-0.1,0.2-0.1,0.3c-0.1,0.3-0.2,0.6-0.2,0.9c0,0,0,0.1,0,0.1c-0.1,0.2-0.3,0.3-0.5,0.1c-0.1-0.1-0.1-0.1-0.2,0
	c-0.1,0.3-0.3,0.6-0.6,0.8c-0.3,0.2-0.7,0.2-1,0.1c-0.2-0.1-0.3-0.1-0.5-0.2c0,0-0.1,0-0.1,0c0,0,0,0.1,0,0.1c0,0.1,0,0.1-0.1,0.2
	c-0.4,0.2-0.8,0.3-1.2,0.4c-0.3,0-0.6,0-0.9-0.1c-0.4-0.2-0.6-0.5-0.6-0.9c-0.1-0.4,0-0.8,0.2-1.1c0.4-0.7,1-1.3,1.7-1.7
	c0.2-0.1,0.3-0.1,0.5-0.1c0.1,0,0.2,0,0.2,0.1C3.6,9.1,3.7,9.4,3.7,9.7z M5.4,10.6c0,0,0-0.1,0-0.1c0-0.2-0.2-0.3-0.3-0.3
	c-0.1,0-0.2,0.1-0.2,0.1c-0.2,0.2-0.4,0.5-0.4,0.8c0,0.2,0,0.4,0.2,0.4c0.1,0.1,0.3,0,0.5-0.1C5.3,11.2,5.4,10.9,5.4,10.6z"/>
<path class="st1" d="M6.1,9.8C6,9.6,5.9,9.5,5.8,9.3C5.6,9.2,5.4,9.2,5.1,9.2c-0.9,0.3-1.4,0.9-1.6,1.8c0,0.1,0,0.2-0.1,0.3
	c0,0,0,0.1,0,0.1c-0.3,0.1-0.6,0.3-0.9,0.3c-0.1,0-0.1,0-0.2,0c-0.2,0-0.4-0.3-0.3-0.5c0.1-0.2,0.2-0.4,0.3-0.6
	c0.1-0.1,0.2-0.3,0.4-0.4c0,0,0.1,0,0.1,0c0.1,0.2,0.3,0.3,0.6,0.3c0.2,0,0.3-0.1,0.3-0.2c0.1-0.4,0.2-0.8,0-1.2
	C3.5,8.7,3.4,8.6,3,8.7c-0.4,0.1-0.7,0.3-1,0.6c-0.3,0.2-0.5,0.5-0.8,0.8c0,0,0,0,0,0c0,0,0,0,0-0.1c0-0.7,0-1.5,0-2.2
	c0-0.1,0-0.1,0.1-0.1c4.3,0,8.7,0,13,0c0.1,0,0.1,0,0.1,0.1c0,0,0,0,0,0c-0.1-0.1-0.2-0.1-0.3-0.1c-0.4,0.1-0.7,0.2-1,0.5
	c-0.1,0.1-0.3,0.2-0.4,0.4c0-0.1,0-0.1-0.1-0.2c0-0.1-0.1-0.3-0.2-0.4c-0.1-0.1-0.2-0.2-0.4-0.1C11.7,8,11.3,8.2,11,8.5
	c-0.3,0.2-0.5,0.5-0.8,0.8c0,0,0,0-0.1,0.1c0-0.2,0-0.4,0-0.5c0-0.3,0.1-0.5,0.1-0.8c0-0.1-0.1-0.2-0.2-0.2c-0.1,0-0.3,0-0.4,0.1
	C9.6,8,9.5,8.1,9.4,8.1C9.2,8.2,9.2,8.3,9.1,8.5c0,0,0,0,0,0.1c0,0,0,0,0,0C8.9,8.2,8.3,8.2,8,8.6C7.9,8.9,7.8,9.1,7.6,9.3
	c0,0,0,0,0,0.1c0-0.2,0-0.4-0.1-0.6c0-0.1,0-0.2-0.1-0.3c0-0.1-0.1-0.2-0.2-0.2c-0.1,0-0.2,0-0.3,0c-0.2,0-0.3,0.1-0.3,0.2
	C6.5,8.8,6.4,9.1,6.3,9.3C6.2,9.5,6.2,9.6,6.1,9.8z"/>
<path class="st1" d="M14.5,8.8c0,0.1,0,0.1,0,0.2c0,0-0.1,0-0.2,0c-0.1,0-0.2,0-0.3,0c0,0-0.1,0-0.1,0c0,0,0-0.1,0-0.1
	c0.1-0.1,0.3-0.2,0.5-0.3c0,0,0,0,0,0C14.5,8.7,14.5,8.8,14.5,8.8z"/>
<path class="st0" d="M5.4,10.6c0,0.3-0.1,0.6-0.4,0.8c-0.2,0.1-0.3,0.2-0.5,0.1c-0.1-0.1-0.2-0.3-0.2-0.4c0.1-0.3,0.2-0.6,0.4-0.8
	c0.1-0.1,0.1-0.1,0.2-0.1c0.2,0,0.3,0.1,0.3,0.3C5.4,10.5,5.4,10.5,5.4,10.6z M4.7,11.4c0.1,0,0.2-0.1,0.3-0.2
	c0.2-0.2,0.3-0.5,0.3-0.7c0-0.1,0-0.2-0.1-0.3c-0.1,0-0.2,0-0.3,0.1c-0.2,0.2-0.3,0.4-0.4,0.6c0,0.1,0,0.2,0,0.3
	C4.5,11.4,4.6,11.4,4.7,11.4z"/>
<path class="st1" d="M4.7,11.4c-0.1,0-0.2-0.1-0.2-0.2c0-0.1,0-0.2,0-0.3c0.1-0.2,0.2-0.4,0.4-0.6C5,10.3,5,10.2,5.2,10.3
	c0.1,0,0.1,0.2,0.1,0.3c0,0.3-0.1,0.5-0.3,0.7C4.9,11.4,4.9,11.4,4.7,11.4z"/>
<g>
	<path class="st3" d="M14.6,3.3c0,0.1,0,0.2,0,0.3c0,0.1,0,0.2,0,0.3c0,0.1,0,0.2,0,0.3c0,0.1,0,0.2,0,0.3c0,0.1,0,0.2,0,0.3
		c0,0.1,0,0.2,0,0.3c0,0.1,0,0.2,0,0.3c0,0.1,0,0.2,0,0.3c0,0.1,0,0.2,0,0.3c0,0.1,0,0.2,0,0.3c0,0.1,0,0.2,0,0.3c0,0,0,0,0,0
		c0,0.1,0,0.2,0,0.2c0,0-0.1,0-0.2,0c-4.3,0-8.6,0-12.8,0c-0.1,0-0.2,0-0.2,0c0,0,0,0,0,0c0-0.3,0-0.7,0-1c0-1.4,0-2.8,0-4.1
		C1.3,2,1.3,2,1.4,2c2,0,4,0,6,0c2.2,0,4.5,0,6.7,0c0.2,0,0.4,0,0.5,0c0,0.1,0,0.1,0,0.2c0,0.1,0,0.2,0,0.3c0,0.1,0,0.2,0,0.3
		C14.6,3,14.6,3.2,14.6,3.3z M9.9,5C9.9,5,9.9,5,9.9,5C9.8,4.6,9.8,4.2,9.7,3.8C9.7,3.4,9.6,2.9,9.6,2.5c0-0.1,0-0.1-0.1-0.1
		c-0.2,0-0.4,0-0.6,0c-0.2,0-0.2,0-0.2,0.2c0,0.2,0,0.3,0.1,0.5c0,0,0,0-0.1-0.1C8.5,2.6,8.1,2.4,7.7,2.4c-0.2,0-0.5,0-0.7,0
		c-0.1,0-0.1,0-0.1,0.1c0,1.2,0,2.4,0,3.6c0,0,0,0.1,0,0.1c-0.1-0.3-0.1-0.7-0.2-1C6.5,4.3,6.4,3.4,6.3,2.5c0-0.1,0-0.1-0.1-0.1
		c-0.3,0-0.6,0-0.9,0c-0.1,0-0.1,0-0.1,0.1C5.1,3,5,3.4,5,3.8c-0.1,0.7-0.2,1.3-0.3,2c0,0.2,0,0.3-0.1,0.5c0,0,0,0,0,0
		c0,0,0-0.1,0-0.1c0-0.4,0-0.8,0-1.3c0-0.8,0-1.6,0-2.4c0-0.1,0-0.1-0.1-0.1c-0.3,0-0.6,0-0.9,0c0,0-0.1,0-0.1,0.1
		c0,0.3-0.1,0.6-0.2,1C3.3,3.8,3.3,4.2,3.2,4.6c0,0,0-0.1,0-0.1C3.1,3.9,3,3.2,2.9,2.5c0-0.1,0-0.1-0.1-0.1c-0.3,0-0.6,0-0.9,0
		c-0.1,0-0.1,0-0.1,0.1c0,1.4,0,2.8,0,4.2c0,0.1,0,0.1,0.1,0.1c0.2,0,0.4,0,0.6,0c0.1,0,0.1,0,0.1-0.1c0-0.6,0-1.2,0-1.8
		c0,0,0-0.1,0-0.1c0,0.1,0.1,0.3,0.1,0.4c0.1,0.5,0.2,1,0.3,1.5c0,0,0,0.1,0.1,0.1c0.1,0,0.2,0,0.3,0c0,0,0.1,0,0.1-0.1
		c0.1-0.4,0.1-0.9,0.2-1.3c0-0.2,0.1-0.4,0.1-0.6c0,0,0,0,0,0c0,0,0,0.1,0,0.1c0,0.6,0,1.2,0,1.8c0,0,0,0.1,0.1,0.1c0.5,0,1,0,1.4,0
		c0,0,0.1,0,0.1-0.1c0-0.2,0.1-0.4,0.1-0.6c0,0,0-0.1,0.1-0.1c0.2,0,0.3,0,0.5,0C6,6.1,6,6.2,6,6.2c0,0.2,0,0.4,0.1,0.5
		c0,0.1,0,0.1,0.1,0.1c0.5,0,0.9,0,1.4,0c0.1,0,0.1,0,0.1-0.1c0-0.4,0-0.8,0-1.3c0-0.1,0.1-0.1,0.1-0.1c0.1,0,0.1,0,0.1,0.1
		C8,5.9,8.1,6.3,8.2,6.7c0,0.1,0,0.1,0.1,0.1c0.2,0,0.4,0,0.6,0C9,6.8,9,6.8,9,6.7c-0.2-0.5-0.3-1-0.5-1.5c0-0.1,0-0.1,0-0.1
		c0.1-0.1,0.2-0.3,0.3-0.4C8.9,4.5,9,4.3,9,4.2c0,0.2,0.1,0.3,0.1,0.5c0.1,0.7,0.2,1.4,0.3,2c0,0.1,0,0.1,0.1,0.1c0.3,0,0.5,0,0.8,0
		c0.1,0,0.1,0,0.1-0.1c0.1-0.4,0.1-0.8,0.2-1.1c0.1-0.7,0.2-1.4,0.3-2.1C10.9,3.3,11,3.1,11,3c0,0,0,0,0,0c0,0,0,0.1,0,0.1
		c0,1.2,0,2.4,0,3.7c0,0,0,0.1,0.1,0.1c0.5,0,0.9,0,1.4,0c0.1,0,0.1,0,0.1-0.1c0-0.2,0-0.4,0-0.7c0-0.1,0-0.1-0.1-0.1
		c-0.2,0-0.4,0-0.6,0c-0.1,0-0.1,0-0.1-0.1c0-0.3,0-0.6,0-0.9c0-0.1,0-0.1,0.1-0.1c0.2,0,0.4,0,0.6,0c0.1,0,0.1,0,0.1-0.1
		c0-0.2,0-0.4,0-0.7c0-0.1,0-0.1-0.1-0.1c-0.2,0-0.4,0-0.6,0c-0.1,0-0.1,0-0.1-0.1c0-0.3,0-0.6,0-0.8c0-0.1,0-0.1,0.1-0.1
		c0.2,0,0.4,0,0.6,0c0.1,0,0.1,0,0.1-0.1c0-0.2,0-0.4,0-0.6c0-0.1,0-0.1-0.1-0.1c-0.7,0-1.4,0-2.1,0c-0.1,0-0.1,0-0.1,0.1
		C10.1,3.3,10,4.2,9.9,5z M13.5,4.2c0-0.6,0-1.1,0-1.7c0-0.1,0-0.1-0.1-0.1c-0.2,0-0.4,0-0.6,0c-0.1,0-0.1,0-0.1,0.1
		c0,0.6,0,1.3,0,1.9c0,0.8,0,1.5,0,2.3c0,0.1,0,0.1,0.1,0.1c0.5,0,0.9,0,1.4,0c0,0,0.1,0,0.1-0.1c0-0.2,0-0.4,0-0.7
		c0-0.1,0-0.1-0.1-0.1c-0.2,0-0.3,0-0.5,0c-0.1,0-0.1,0-0.1-0.1C13.5,5.4,13.5,4.8,13.5,4.2z"/>
	<path class="st4" d="M9.9,5.1c0.1-0.9,0.2-1.7,0.3-2.5c0-0.1,0-0.1,0.1-0.1c0.7,0,1.4,0,2.1,0c0.1,0,0.1,0,0.1,0.1
		c0,0.2,0,0.4,0,0.6c0,0.1,0,0.1-0.1,0.1c-0.2,0-0.4,0-0.6,0c-0.1,0-0.1,0-0.1,0.1c0,0.3,0,0.6,0,0.8c0,0.1,0,0.1,0.1,0.1
		c0.2,0,0.4,0,0.6,0c0.1,0,0.1,0,0.1,0.1c0,0.2,0,0.4,0,0.7c0,0.1,0,0.1-0.1,0.1c-0.2,0-0.4,0-0.6,0c-0.1,0-0.1,0-0.1,0.1
		c0,0.3,0,0.6,0,0.9c0,0.1,0,0.1,0.1,0.1c0.2,0,0.4,0,0.6,0c0.1,0,0.1,0,0.1,0.1c0,0.2,0,0.4,0,0.7c0,0.1,0,0.1-0.1,0.1
		c-0.5,0-0.9,0-1.4,0c-0.1,0-0.1,0-0.1-0.1c0-1.2,0-2.4,0-3.7c0,0,0-0.1,0-0.1c0,0,0,0,0,0c0,0.2-0.1,0.4-0.1,0.6
		c-0.1,0.7-0.2,1.4-0.3,2.1c-0.1,0.4-0.1,0.8-0.2,1.1c0,0.1,0,0.1-0.1,0.1c-0.3,0-0.5,0-0.8,0c-0.1,0-0.1,0-0.1-0.1
		c-0.1-0.7-0.2-1.4-0.3-2C9.1,4.6,9,4.4,9,4.2c0,0.2,0,0.3-0.1,0.4C8.8,4.8,8.7,5,8.6,5.1c-0.1,0-0.1,0.1,0,0.1
		c0.2,0.5,0.3,1,0.5,1.5c0,0.1,0,0.1-0.1,0.1c-0.2,0-0.4,0-0.6,0c-0.1,0-0.1,0-0.1-0.1C8.1,6.3,8,5.9,7.9,5.5c0,0,0-0.1-0.1-0.1
		c-0.1,0-0.1,0-0.1,0.1c0,0.4,0,0.8,0,1.3c0,0.1,0,0.1-0.1,0.1c-0.5,0-0.9,0-1.4,0c-0.1,0-0.1,0-0.1-0.1c0-0.2,0-0.4-0.1-0.5
		c0,0,0-0.1-0.1-0.1c-0.2,0-0.3,0-0.5,0c0,0-0.1,0-0.1,0.1c0,0.2-0.1,0.4-0.1,0.6c0,0,0,0.1-0.1,0.1c-0.5,0-1,0-1.4,0
		c-0.1,0-0.1,0-0.1-0.1c0-0.6,0-1.2,0-1.8c0,0,0-0.1,0-0.1c0,0,0,0,0,0c0,0.2-0.1,0.4-0.1,0.6C3.6,5.9,3.5,6.3,3.4,6.8
		c0,0,0,0.1-0.1,0.1c-0.1,0-0.2,0-0.3,0C3,6.8,3,6.8,3,6.8c-0.1-0.5-0.2-1-0.3-1.5c0-0.1,0-0.3-0.1-0.4c0,0,0,0.1,0,0.1
		c0,0.6,0,1.2,0,1.8c0,0.1,0,0.1-0.1,0.1c-0.2,0-0.4,0-0.6,0c-0.1,0-0.1,0-0.1-0.1c0-1.4,0-2.8,0-4.2c0-0.1,0-0.1,0.1-0.1
		c0.3,0,0.6,0,0.9,0c0,0,0.1,0,0.1,0.1C3,3.2,3.1,3.9,3.2,4.6c0,0,0,0.1,0,0.1c0.1-0.4,0.1-0.8,0.2-1.2c0.1-0.3,0.1-0.6,0.2-1
		c0-0.1,0-0.1,0.1-0.1c0.3,0,0.6,0,0.9,0c0.1,0,0.1,0,0.1,0.1c0,0.8,0,1.6,0,2.4c0,0.4,0,0.8,0,1.3c0,0,0,0.1,0,0.1c0,0,0,0,0,0
		c0-0.2,0-0.3,0.1-0.5c0.1-0.7,0.2-1.3,0.3-2C5,3.4,5.1,3,5.2,2.6c0-0.1,0-0.1,0.1-0.1c0.3,0,0.6,0,0.9,0c0,0,0.1,0,0.1,0.1
		c0.1,0.9,0.3,1.8,0.4,2.7c0.1,0.3,0.1,0.7,0.2,1c0,0,0-0.1,0-0.1c0-1.2,0-2.4,0-3.6c0-0.1,0-0.1,0.1-0.1c0.2,0,0.5,0,0.7,0
		c0.5,0,0.8,0.2,1.1,0.6c0,0,0,0.1,0.1,0.1c0-0.2,0-0.3-0.1-0.5c0-0.2,0-0.2,0.2-0.2c0.2,0,0.4,0,0.6,0c0,0,0.1,0,0.1,0.1
		C9.6,3,9.7,3.4,9.7,3.8C9.8,4.2,9.8,4.6,9.9,5.1C9.9,5,9.9,5,9.9,5.1z M7.7,3.9c0,0.2,0,0.4,0,0.6c0,0.1,0,0.1,0.1,0.1
		c0.2,0,0.3-0.1,0.4-0.3c0.1-0.3,0.1-0.5,0-0.8C8,3.4,7.9,3.3,7.7,3.2c-0.1,0-0.1,0-0.1,0.1C7.7,3.5,7.7,3.7,7.7,3.9z M5.7,3.7
		C5.7,3.7,5.7,3.7,5.7,3.7C5.7,3.7,5.7,3.7,5.7,3.7C5.7,4,5.7,4.2,5.6,4.5c0,0.3-0.1,0.6-0.1,0.9c0,0,0,0.1,0.1,0.1
		c0.1,0,0.2,0,0.3,0c0,0,0.1,0,0-0.1c0-0.2,0-0.3-0.1-0.5C5.8,4.5,5.8,4.1,5.7,3.7z"/>
	<path class="st4" d="M13.5,4.2c0,0.6,0,1.1,0,1.7c0,0.1,0,0.1,0.1,0.1c0.2,0,0.3,0,0.5,0c0.1,0,0.1,0,0.1,0.1c0,0.2,0,0.4,0,0.7
		c0,0,0,0.1-0.1,0.1c-0.5,0-0.9,0-1.4,0c-0.1,0-0.1,0-0.1-0.1c0-0.8,0-1.5,0-2.3c0-0.6,0-1.3,0-1.9c0-0.1,0-0.1,0.1-0.1
		c0.2,0,0.4,0,0.6,0c0.1,0,0.1,0,0.1,0.1C13.5,3.1,13.5,3.7,13.5,4.2z"/>
	<path class="st3" d="M7.7,3.9c0-0.2,0-0.4,0-0.6c0-0.1,0-0.1,0.1-0.1c0.2,0,0.3,0.1,0.4,0.3c0.1,0.3,0.1,0.5,0,0.8
		C8,4.5,7.9,4.6,7.7,4.6c0,0-0.1,0-0.1-0.1C7.7,4.3,7.7,4.1,7.7,3.9z"/>
	<path class="st3" d="M5.7,3.7c0.1,0.4,0.1,0.8,0.2,1.3c0,0.2,0,0.3,0.1,0.5c0,0,0,0.1,0,0.1c-0.1,0-0.2,0-0.3,0
		c-0.1,0-0.1,0-0.1-0.1c0-0.3,0.1-0.6,0.1-0.9C5.7,4.2,5.7,3.9,5.7,3.7C5.7,3.7,5.7,3.7,5.7,3.7C5.7,3.7,5.7,3.7,5.7,3.7z"/>
</g>
</svg>
